P2
11 11
255
0 0 0 0 0 0 0 0 0 0 0 
0 0 0 0 0 0 0 0 0 0 0 
0 0 0 0 0 0 0 0 0 0 0 
0 0 0 0 157 182 157 0 0 0 0 
0 0 0 157 222 239 222 157 0 0 0 
0 0 0 182 239 255 239 182 0 0 0 
0 0 0 157 222 239 222 157 0 0 0 
0 0 0 0 157 182 157 0 0 0 0 
0 0 0 0 0 0 0 0 0 0 0 
0 0 0 0 0 0 0 0 0 0 0 
0 0 0 0 0 0 0 0 0 0 0 
