P2
5 5
255
0 0 0 0 0 
0 0 161 0 0 
0 161 255 161 0 
0 0 161 0 0 
0 0 0 0 0 
